<?xml version="1.0" encoding="iso-8859-1"?>
<!-- Uploaded to: SVG Repo, www.svgrepo.com, Generator: SVG Repo Mixer Tools -->
<svg fill="#000000" height="800px" width="800px" version="1.1" id="Layer_1" xmlns="http://www.w3.org/2000/svg" xmlns:xlink="http://www.w3.org/1999/xlink" 
	 viewBox="0 0 481.882 481.882" xml:space="preserve">
<g>
	<g>
		<path d="M440.696,0c-22.664,0-41.186,18.523-41.186,41.336h15.059c0-14.531,11.746-26.278,26.127-26.278
			c14.456,0,26.127,11.747,26.127,26.278v276.255c-18.974-32-53.685-53.534-93.44-53.534c-42.24,0-78.833,24.32-96.753,59.708
			c-28.009-19.726-56.697-10.842-73.562,0.302c-17.694-34.936-53.986-58.955-95.624-58.955c-39.228,0-73.638,21.233-92.386,52.856
			V41.336c0-14.531,11.746-26.278,26.127-26.278c14.456,0,26.202,11.747,26.202,26.278h15.059C82.447,18.523,63.925,0,41.186,0
			C18.522,0,0,18.523,0,41.336V376.17h0.075c1.656,57.976,49.167,104.583,107.369,104.583c59.181,0,107.369-48.339,107.369-107.821
			c0-12.122-2.033-23.868-5.722-34.711c9.412-6.853,34.861-21.082,61.515-0.15c-3.689,10.917-5.722,22.663-5.722,34.86
			c0,60.084,48.64,108.95,108.499,108.95c58.805,0,106.692-47.134,108.423-105.712h0.075V41.336C481.882,18.523,463.435,0,440.696,0
			z M107.43,310.324c-34.313,0-62.228,28.088-62.228,62.618H30.143c0-42.831,34.669-77.676,77.287-77.676V310.324z M436.731,372.942
			c0-35.147-28.415-63.736-63.346-63.736v-15.059c43.232,0,78.405,35.346,78.405,78.795H436.731z"/>
	</g>
</g>
</svg>